wght100.ufo
<glyph name="A" format="2">
	<unicode hex="0041"/>
	<advance width="1483"/>
	<outline>
		<contour>
			<point x="-72.7523193359" y="0" type="line"/>
			<point x="-72.7523193359" y="100.001953125" type="line"/>
			<point x="102.2464599609" y="135.001953125" type="line"/>
			<point x="277.0200805664" y="561.5728149414" type="line"/>
			<point x="644.805480957" y="1508" type="line"/>
			<point x="776.5486450195" y="1508" type="line"/>
			<point x="1159.99609375" y="580.1531982422" type="line"/>
			<point x="1344.8065795898" y="135.001953125" type="line"/>
			<point x="1544.8053588867" y="100.001953125" type="line"/>
			<point x="1544.8053588867" y="0" type="line"/>
			<point x="945.9438476562" y="0" type="line"/>
			<point x="946.9438476562" y="100.001953125" type="line"/>
			<point x="1153.9426269531" y="136.001953125" type="line"/>
			<point x="996.1469726562" y="540.0699462891" type="line"/>
			<point x="779" y="1132" type="line"/>
			<point x="742" y="1246" type="line"/>
			<point x="732" y="1246" type="line"/>
			<point x="695" y="1132" type="line"/>
			<point x="400.7103881836" y="525.6513061523" type="line"/>
			<point x="256.33984375" y="135.001953125" type="line"/>
			<point x="460.3386230469" y="100.001953125" type="line"/>
			<point x="460.3386230469" y="0" type="line"/>
		</contour>
		<contour>
			<point x="632.2282714844" y="558.0968017578" type="line"/>
			<point x="1060.4081420898" y="567.0806274414" type="line"/>
			<point x="1098.4855957031" y="445.8550415039" type="line"/>
			<point x="632.2282714844" y="441.7100830078" type="line"/>
		</contour>
		<contour>
			<point x="309.7883300781" y="443.8550415039" type="line"/>
			<point x="344.5554199219" y="565.5161132812" type="line"/>
			<point x="632.2282714844" y="558.0968017578" type="line"/>
			<point x="632.2282714844" y="441.7100830078" type="line"/>
		</contour>
	</outline>
	<anchor name="bottom" x="735" y="0"/>
	<anchor name="ogonek" x="1318" y="0"/>
	<anchor name="tonos" x="492" y="1500"/>
	<anchor name="top" x="753" y="1500"/>
</glyph>
<glyph name="C" format="2">
	<unicode hex="0043"/>
	<advance width="1327"/>
	<outline>
		<contour>
			<point x="81.0009765625" y="706" type="qcurve" smooth="yes"/>
			<point x="81.0009765625" y="1080"/>
			<point x="534.2681884766" y="1519"/>
			<point x="829.9275512695" y="1519" type="qcurve" smooth="yes"/>
			<point x="936.6742553711" y="1519"/>
			<point x="1062.9066162109" y="1459"/>
			<point x="1116.0241088867" y="1411" type="qcurve"/>
			<point x="1147.2059936523" y="1500" type="line"/>
			<point x="1253.0608520508" y="1500" type="line"/>
			<point x="1253.0608520508" y="1038.9594726562" type="line"/>
			<point x="1139.4735107422" y="1038.9594726562" type="line"/>
			<point x="1112.0241088867" y="1228" type="line" smooth="yes"/>
			<point x="1094.0241088867" y="1353"/>
			<point x="938.1915283203" y="1386.6937866211"/>
			<point x="867.1774902344" y="1386.6937866211" type="qcurve" smooth="yes"/>
			<point x="610.6770629883" y="1386.6937866211"/>
			<point x="269.4010009766" y="1064.4837646484"/>
			<point x="272.4010009766" y="728" type="qcurve" smooth="yes"/>
			<point x="274.4010009766" y="435.7756347656"/>
			<point x="622.6805419922" y="106.2255859375"/>
			<point x="880.5856933594" y="106.2255859375" type="qcurve" smooth="yes"/>
			<point x="1057.657409668" y="106.2255859375"/>
			<point x="1216.2546386719" y="250.0481567383"/>
			<point x="1236.4075317383" y="326.0321044922" type="qcurve"/>
			<point x="1329.2138061523" y="238" type="line"/>
			<point x="1262.6975097656" y="118"/>
			<point x="1029.0246582031" y="-29"/>
			<point x="829.9716186523" y="-29" type="qcurve" smooth="yes"/>
			<point x="510.21484375" y="-29"/>
			<point x="81.0009765625" y="398"/>
		</contour>
	</outline>
	<anchor name="bottom" x="836" y="0"/>
	<anchor name="top" x="836" y="1500"/>
</glyph>
<glyph name="D" format="2">
	<unicode hex="0044"/>
	<advance width="1581"/>
	<outline>
		<contour>
			<point x="82.0002441406" y="0" type="line"/>
			<point x="82.0002441406" y="100.001953125" type="line"/>
			<point x="289.9990234375" y="135.001953125" type="line"/>
			<point x="293.1618652344" y="754" type="line"/>
			<point x="289.9990234375" y="1359.7177734375" type="line"/>
			<point x="82.0002441406" y="1393.7177734375" type="line"/>
			<point x="82.0002441406" y="1500" type="line"/>
			<point x="718.8438110352" y="1500" type="line" smooth="yes"/>
			<point x="1052.1780395508" y="1500"/>
			<point x="1500.388671875" y="1119"/>
			<point x="1500.388671875" y="777" type="qcurve" smooth="yes"/>
			<point x="1500.388671875" y="410"/>
			<point x="1037.4758300781" y="0"/>
			<point x="679.2891845703" y="0" type="qcurve" smooth="yes"/>
		</contour>
		<contour>
			<point x="470.5848388672" y="132.9675292969" type="line"/>
			<point x="504.232421875" y="128.532043457"/>
			<point x="663.9262695312" y="116.9675292969"/>
			<point x="725.0616455078" y="116.9675292969" type="qcurve" smooth="yes"/>
			<point x="968.514831543" y="116.9675292969"/>
			<point x="1307.4072265625" y="432.4875488281"/>
			<point x="1309.4072265625" y="771" type="qcurve" smooth="yes"/>
			<point x="1311.4072265625" y="1080.8438720703"/>
			<point x="940.0047607422" y="1378.3873291016"/>
			<point x="680.7420043945" y="1378.3873291016" type="qcurve" smooth="yes"/>
			<point x="649.1840209961" y="1378.3873291016"/>
			<point x="510.4901733398" y="1370.8228149414"/>
			<point x="470.5848388672" y="1366.3873291016" type="qcurve"/>
			<point x="466.4219970703" y="762" type="line"/>
		</contour>
	</outline>
	<anchor name="bottom" x="686" y="0"/>
	<anchor name="center" x="438" y="754"/>
	<anchor name="top" x="686" y="1500"/>
	<anchor name="liga" x="1590" y="0"/>
</glyph>
<glyph name="E" format="2">
	<unicode hex="0045"/>
	<advance width="1260"/>
	<outline>
		<contour>
			<point x="82.0002441406" y="0" type="line"/>
			<point x="82.0002441406" y="100.001953125" type="line"/>
			<point x="290.9990234375" y="135.001953125" type="line"/>
			<point x="293.1618652344" y="784" type="line"/>
			<point x="290.9990234375" y="1359.7177734375" type="line"/>
			<point x="82.0002441406" y="1393.7177734375" type="line"/>
			<point x="82.0002441406" y="1500" type="line"/>
			<point x="1116.8039550781" y="1500" type="line"/>
			<point x="1116.8039550781" y="1157.2064208984" type="line"/>
			<point x="1006.8035888672" y="1157.2064208984" type="line"/>
			<point x="961.8035888672" y="1380.3389282227" type="line"/>
			<point x="500" y="1382" type="line"/>
			<point x="470" y="1362" type="line"/>
			<point x="468" y="783" type="line"/>
			<point x="470" y="128" type="line"/>
			<point x="500" y="108" type="line"/>
			<point x="1016.229675293" y="114.0159301758" type="line"/>
			<point x="1101.229675293" y="373.2794189453" type="line"/>
			<point x="1210.2300415039" y="373.2794189453" type="line"/>
			<point x="1170.2300415039" y="0" type="line"/>
		</contour>
		<contour>
			<point x="381.5826416016" y="735.8549194336" type="line"/>
			<point x="381.5826416016" y="837.8386230469" type="line"/>
			<point x="826.0614013672" y="844.4837646484" type="line"/>
			<point x="855.0614013672" y="1001.943359375" type="line"/>
			<point x="964.0617675781" y="1001.943359375" type="line"/>
			<point x="964.0617675781" y="566.056640625" type="line"/>
			<point x="855.0614013672" y="566.056640625" type="line"/>
			<point x="826.0614013672" y="730.209777832" type="line"/>
		</contour>
	</outline>
	<anchor name="bottom" x="681" y="0"/>
	<anchor name="ogonek" x="1000" y="0"/>
	<anchor name="top" x="654" y="1500"/>
	<anchor name="tonos" x="0" y="1500"/>
</glyph>
<glyph name="H" format="2">
	<unicode hex="0048"/>
	<advance width="1741"/>
	<outline>
		<contour>
			<point x="82.0002441406" y="0" type="line"/>
			<point x="82.0002441406" y="100.001953125" type="line"/>
			<point x="289.9990234375" y="135.001953125" type="line"/>
			<point x="293.1618652344" y="754" type="line"/>
			<point x="289.9990234375" y="1359.7177734375" type="line"/>
			<point x="82.0002441406" y="1393.7177734375" type="line"/>
			<point x="82.0002441406" y="1500" type="line"/>
			<point x="688.5836181641" y="1500" type="line"/>
			<point x="688.5836181641" y="1393.7177734375" type="line"/>
			<point x="470.5848388672" y="1359.7177734375" type="line"/>
			<point x="467.4219970703" y="754" type="line"/>
			<point x="470.5848388672" y="135.001953125" type="line"/>
			<point x="688.5836181641" y="100.001953125" type="line"/>
			<point x="688.5836181641" y="0" type="line"/>
		</contour>
		<contour>
			<point x="400.0012207031" y="721.4356079102" type="line"/>
			<point x="400.0012207031" y="853.9998779297" type="line"/>
			<point x="881.6361083984" y="841.4837646484" type="line"/>
			<point x="1339.6002197266" y="853.9998779297" type="line"/>
			<point x="1339.6002197266" y="721.4356079102" type="line"/>
			<point x="881.6361083984" y="721.4356079102" type="line"/>
		</contour>
		<contour>
			<point x="1052.5992431641" y="0" type="line"/>
			<point x="1052.5992431641" y="100.001953125" type="line"/>
			<point x="1270.5980224609" y="135.001953125" type="line"/>
			<point x="1273.7608642578" y="754" type="line"/>
			<point x="1270.5980224609" y="1359.7177734375" type="line"/>
			<point x="1052.5992431641" y="1393.7177734375" type="line"/>
			<point x="1052.5992431641" y="1500" type="line"/>
			<point x="1659.1826171875" y="1500" type="line"/>
			<point x="1659.1826171875" y="1393.7177734375" type="line"/>
			<point x="1451.1838378906" y="1359.7177734375" type="line"/>
			<point x="1448.0209960938" y="754" type="line"/>
			<point x="1451.1838378906" y="135.001953125" type="line"/>
			<point x="1659.1826171875" y="100.001953125" type="line"/>
			<point x="1659.1826171875" y="0" type="line"/>
		</contour>
	</outline>
	<anchor name="bottom" x="870" y="0"/>
	<anchor name="center" x="870" y="1079"/>
	<anchor name="top" x="870" y="1500"/>
	<anchor name="tonos" x="0" y="1500"/>
	<anchor name="cy_descender" x="1658" y="100"/>
</glyph>
<glyph name="I" format="2">
	<unicode hex="0049"/>
	<advance width="781"/>
	<outline>
		<contour>
			<point x="82.0002441406" y="0" type="line"/>
			<point x="82.0002441406" y="100.001953125" type="line"/>
			<point x="299.9990234375" y="135.001953125" type="line"/>
			<point x="303.1618652344" y="754" type="line"/>
			<point x="299.9990234375" y="1359.7177734375" type="line"/>
			<point x="82.0002441406" y="1393.7177734375" type="line"/>
			<point x="82.0002441406" y="1500" type="line"/>
			<point x="698.5836181641" y="1500" type="line"/>
			<point x="698.5836181641" y="1393.7177734375" type="line"/>
			<point x="480.5848388672" y="1359.7177734375" type="line"/>
			<point x="477.4219970703" y="754" type="line"/>
			<point x="480.5848388672" y="135.001953125" type="line"/>
			<point x="698.5836181641" y="100.001953125" type="line"/>
			<point x="698.5836181641" y="0" type="line"/>
		</contour>
	</outline>
	<anchor name="bottom" x="390" y="0"/>
	<anchor name="ogonek" x="526" y="0"/>
	<anchor name="top" x="390" y="1500"/>
	<anchor name="tonos" x="0" y="1500"/>
	<anchor name="yu_dash" x="380" y="755"/>
	<anchor name="_Yeru_I" x="82" y="0"/>
	<anchor name="liga" x="780" y="0"/>
</glyph>
<glyph name="J" format="2">
	<unicode hex="004A"/>
	<advance width="766"/>
	<outline>
		<contour>
			<point x="17.5162353516" y="-223.7962646484" type="qcurve"/>
			<point x="17.5162353516" y="-91.7938232422" type="line"/>
			<point x="31.94921875" y="-90.6336669922"/>
			<point x="67.2481689453" y="-84.8734130859"/>
			<point x="90.3753051758" y="-83.3133544922" type="qcurve" smooth="yes"/>
			<point x="208.182800293" y="-81.2379150391"/>
			<point x="298.8322753906" y="-7.9154052734"/>
			<point x="298.8322753906" y="125.0845947266" type="qcurve" smooth="yes"/>
			<point x="300.8322753906" y="754" type="line"/>
			<point x="297.8322753906" y="1359.7177734375" type="line"/>
			<point x="76.8334960938" y="1393.7177734375" type="line"/>
			<point x="76.8334960938" y="1500" type="line"/>
			<point x="688.2540283203" y="1500" type="line"/>
			<point x="670" y="1384" type="line"/>
			<point x="480" y="1350" type="line"/>
			<point x="474.0924072266" y="754" type="line"/>
			<point x="485.0694580078" y="140.0845947266" type="line" smooth="yes"/>
			<point x="488.2220458984" y="-36.9154052734"/>
			<point x="304.4057006836" y="-217.7957763672"/>
			<point x="151.8991699219" y="-217.7957763672" type="qcurve" smooth="yes"/>
			<point x="93.4887084961" y="-217.7957763672"/>
			<point x="42.6005859375" y="-222.5960693359"/>
		</contour>
	</outline>
	<anchor name="bottom" x="376" y="-208"/>
	<anchor name="top" x="376" y="1500"/>
	<anchor name="_liga" x="0" y="0"/>
</glyph>
<glyph name="K" format="2">
	<unicode hex="004B"/>
	<advance width="1432"/>
	<outline>
		<contour>
			<point x="82.0002441406" y="0" type="line"/>
			<point x="82.0002441406" y="100.001953125" type="line"/>
			<point x="289.9990234375" y="135.001953125" type="line"/>
			<point x="291.9990234375" y="754" type="line"/>
			<point x="289.9990234375" y="1359.7177734375" type="line"/>
			<point x="82.0002441406" y="1393.7177734375" type="line"/>
			<point x="82.0002441406" y="1500" type="line"/>
			<point x="688.5836181641" y="1500" type="line"/>
			<point x="688.5836181641" y="1393.7177734375" type="line"/>
			<point x="470.5848388672" y="1359.7177734375" type="line"/>
			<point x="467.4219970703" y="754.658996582" type="line"/>
			<point x="470.5848388672" y="135.001953125" type="line"/>
			<point x="688.5836181641" y="100.001953125" type="line"/>
			<point x="688.5836181641" y="0" type="line"/>
		</contour>
		<contour>
			<point x="366.372253418" y="399.9901733398" type="line"/>
			<point x="366.372253418" y="565.4838256836" type="line"/>
			<point x="1062.026550293" y="1359.7177734375" type="line"/>
			<point x="905.0282592773" y="1393.7177734375" type="line"/>
			<point x="905.0282592773" y="1500" type="line"/>
			<point x="1400.6214599609" y="1500" type="line"/>
			<point x="1400.6214599609" y="1393.7177734375" type="line"/>
			<point x="1230.623046875" y="1359.7177734375" type="line"/>
			<point x="746.2622070312" y="849" type="line"/>
			<point x="740.389831543" y="834" type="line"/>
		</contour>
		<contour>
			<point x="628.8526000977" y="801.9181518555" type="line"/>
			<point x="740.3073120117" y="932.2141113281" type="line"/>
			<point x="1311.8418579102" y="135.001953125" type="line"/>
			<point x="1495.8402709961" y="100.001953125" type="line"/>
			<point x="1495.8402709961" y="0" type="line"/>
			<point x="915.3031616211" y="0" type="line"/>
			<point x="915.3031616211" y="100.001953125" type="line"/>
			<point x="1105.301940918" y="135.001953125" type="line"/>
		</contour>
	</outline>
	<anchor name="bottom" x="812" y="0"/>
	<anchor name="top" x="770" y="1500"/>
</glyph>
<glyph name="L" format="2">
	<unicode hex="004C"/>
	<advance width="1282"/>
	<outline>
		<contour>
			<point x="82.0002441406" y="0" type="line"/>
			<point x="82.0002441406" y="100.001953125" type="line"/>
			<point x="290.9990234375" y="135.001953125" type="line"/>
			<point x="291.9990234375" y="754" type="line"/>
			<point x="289.9990234375" y="1359.7177734375" type="line"/>
			<point x="64.0002441406" y="1393.7177734375" type="line"/>
			<point x="64.0002441406" y="1500" type="line"/>
			<point x="727.5836181641" y="1500" type="line"/>
			<point x="727.5836181641" y="1393.7177734375" type="line"/>
			<point x="470.5848388672" y="1359.7177734375" type="line"/>
			<point x="467.4219970703" y="754" type="line"/>
			<point x="468.5848388672" y="141.0159301758" type="line"/>
			<point x="493.5848388672" y="114.0159301758" type="line"/>
			<point x="1054.4127197266" y="114.0159301758" type="line"/>
			<point x="1151.4127197266" y="469.7811889648" type="line"/>
			<point x="1264.5222167969" y="469.7811889648" type="line"/>
			<point x="1207.748046875" y="0" type="line"/>
		</contour>
	</outline>
	<anchor name="bottom" x="705" y="0"/>
	<anchor name="centerright" x="928" y="750"/>
	<anchor name="top" x="632" y="1500"/>
	<anchor name="topright" x="784" y="1001"/>
	<anchor name="center" x="378" y="750"/>
	<anchor name="liga" x="1264" y="0"/>
</glyph>
<glyph name="M" format="2">
	<unicode hex="004D"/>
	<advance width="2108"/>
	<outline>
		<contour>
			<point x="93.0002441406" y="0" type="line"/>
			<point x="93.0002441406" y="100.001953125" type="line"/>
			<point x="290.9990234375" y="135.001953125" type="line"/>
			<point x="291.9990234375" y="753" type="line"/>
			<point x="290.9990234375" y="1359.7177734375" type="line"/>
			<point x="93.0002441406" y="1393.7177734375" type="line"/>
			<point x="93.0002441406" y="1500" type="line"/>
			<point x="598.3397827148" y="1500" type="line"/>
			<point x="834.0050048828" y="808.4067382812" type="line"/>
			<point x="987.3623046875" y="353.3519287109" type="line"/>
			<point x="1033.2631225586" y="220.3372802734" type="line"/>
			<point x="1037.2631225586" y="220.3372802734" type="line"/>
			<point x="1087.1954956055" y="352.5170288086" type="line"/>
			<point x="1257.1248779297" y="810.7211303711" type="line"/>
			<point x="1495.7096557617" y="1500" type="line"/>
			<point x="2025.8063354492" y="1500" type="line"/>
			<point x="2025.8063354492" y="1393.7177734375" type="line"/>
			<point x="1817.8075561523" y="1359.7177734375" type="line"/>
			<point x="1815.8075561523" y="754" type="line"/>
			<point x="1817.8075561523" y="135.001953125" type="line"/>
			<point x="2025.8063354492" y="100.001953125" type="line"/>
			<point x="2025.8063354492" y="0" type="line"/>
			<point x="1422.5486450195" y="0" type="line"/>
			<point x="1422.5486450195" y="100.001953125" type="line"/>
			<point x="1639.5474243164" y="135.001953125" type="line"/>
			<point x="1641.5474243164" y="753" type="line"/>
			<point x="1635.4183959961" y="1297" type="line"/>
			<point x="1636.5474243164" y="1456" type="line"/>
			<point x="1632.5474243164" y="1457" type="line"/>
			<point x="1578.1119995117" y="1293.1098022461" type="line"/>
			<point x="1382.5432739258" y="766.6129760742" type="line"/>
			<point x="1099.9346313477" y="-25.0240478516" type="line"/>
			<point x="937.0324707031" y="-25.0240478516" type="line"/>
			<point x="676.7012329102" y="744.1213378906" type="line"/>
			<point x="478.1454467773" y="1295.2426757812" type="line"/>
			<point x="421.6600952148" y="1457" type="line"/>
			<point x="417.6600952148" y="1456" type="line"/>
			<point x="419.6600952148" y="1297" type="line"/>
			<point x="419.6600952148" y="753" type="line"/>
			<point x="420.6600952148" y="135.001953125" type="line"/>
			<point x="626.6588745117" y="100.001953125" type="line"/>
			<point x="626.6588745117" y="0" type="line"/>
		</contour>
	</outline>
	<anchor name="bottom" x="1025" y="0"/>
	<anchor name="top" x="1058" y="1500"/>
</glyph>
<glyph name="N" format="2">
	<unicode hex="004E"/>
	<advance width="1600"/>
	<outline>
		<contour>
			<point x="98.0002441406" y="0" type="line"/>
			<point x="98.0002441406" y="100.001953125" type="line"/>
			<point x="289.9990234375" y="135.001953125" type="line"/>
			<point x="291.9990234375" y="753" type="line"/>
			<point x="289.9990234375" y="1359.7177734375" type="line"/>
			<point x="98.0002441406" y="1393.7177734375" type="line"/>
			<point x="98.0002441406" y="1500" type="line"/>
			<point x="521.5413818359" y="1500" type="line"/>
			<point x="889.6080932617" y="858.8754882812" type="line"/>
			<point x="1139.1889648438" y="426.259765625" type="line"/>
			<point x="1207.2711181641" y="309.7528076172" type="line"/>
			<point x="1209.2711181641" y="309.7528076172" type="line"/>
			<point x="1208.612121582" y="477.7528076172" type="line"/>
			<point x="1209.4661865234" y="751" type="line"/>
			<point x="1204.4661865234" y="1359.7177734375" type="line"/>
			<point x="978.4674072266" y="1393.7177734375" type="line"/>
			<point x="978.4674072266" y="1500" type="line"/>
			<point x="1527.6583251953" y="1500" type="line"/>
			<point x="1527.6583251953" y="1393.7177734375" type="line"/>
			<point x="1332.6595458984" y="1359.7177734375" type="line"/>
			<point x="1330.6595458984" y="753" type="line"/>
			<point x="1331.6595458984" y="-4" type="line"/>
			<point x="1202.2587280273" y="-4" type="line"/>
			<point x="729.8519897461" y="795.1790771484" type="line"/>
			<point x="511.0855712891" y="1167.9877319336" type="line"/>
			<point x="416.2230834961" y="1327.9340209961" type="line"/>
			<point x="414.2230834961" y="1326.7711791992" type="line"/>
			<point x="415.3214111328" y="1118.7711791992" type="line"/>
			<point x="414.3214111328" y="755" type="line"/>
			<point x="419.3214111328" y="135.001953125" type="line"/>
			<point x="640.3201904297" y="100.001953125" type="line"/>
			<point x="640.3201904297" y="0" type="line"/>
		</contour>
	</outline>
	<anchor name="bottom" x="800" y="0"/>
	<anchor name="top" x="800" y="1500"/>
	<anchor name="engtail" x="1324" y="0"/>
	<anchor name="liga" x="1600" y="0"/>
</glyph>
<glyph name="P" format="2">
	<unicode hex="0050"/>
	<advance width="1301"/>
	<outline>
		<contour>
			<point x="64.0002441406" y="0" type="line"/>
			<point x="64.0002441406" y="100.001953125" type="line"/>
			<point x="289.9990234375" y="135.001953125" type="line"/>
			<point x="293.1618652344" y="762" type="line"/>
			<point x="290.9990234375" y="1359.7177734375" type="line"/>
			<point x="82.0002441406" y="1393.7177734375" type="line"/>
			<point x="82.0002441406" y="1500" type="line"/>
			<point x="737.8773803711" y="1500" type="line" smooth="yes"/>
			<point x="960.5065917969" y="1500"/>
			<point x="1229.9326782227" y="1289"/>
			<point x="1229.9326782227" y="1082" type="qcurve" smooth="yes"/>
			<point x="1229.9326782227" y="876"/>
			<point x="956.3641357422" y="596.2420043945"/>
			<point x="712.5637207031" y="596.2420043945" type="qcurve" smooth="yes"/>
			<point x="614.8198242188" y="596.2420043945"/>
			<point x="435.4794311523" y="613.6774902344"/>
			<point x="388.8174438477" y="621.8549194336" type="qcurve"/>
			<point x="395.8853759766" y="732.9970703125" type="line"/>
			<point x="456.963684082" y="717.8708496094"/>
			<point x="562.0311889648" y="713.0805053711"/>
			<point x="676.241027832" y="713.0805053711" type="qcurve" smooth="yes"/>
			<point x="835.7890625" y="713.0805053711"/>
			<point x="1044.4397583008" y="894.9974365234"/>
			<point x="1044.4397583008" y="1084" type="qcurve" smooth="yes"/>
			<point x="1044.4397583008" y="1256.7692871094"/>
			<point x="836.4075317383" y="1378.3389282227"/>
			<point x="672.7881469727" y="1378.3389282227" type="qcurve" smooth="yes"/>
			<point x="504.1662597656" y="1378.3389282227" type="line"/>
			<point x="470.1662597656" y="1358.3389282227" type="line"/>
			<point x="466.4219970703" y="766" type="line"/>
			<point x="469.5848388672" y="135.001953125" type="line"/>
			<point x="714.5836181641" y="100.001953125" type="line"/>
			<point x="714.5836181641" y="0" type="line"/>
		</contour>
	</outline>
	<anchor name="bottom" x="634" y="0"/>
	<anchor name="top" x="634" y="1500"/>
</glyph>
<glyph name="Q" format="2">
	<unicode hex="0051"/>
	<advance width="1657"/>
	<outline>
		<contour>
			<point x="81.0009765625" y="737" type="qcurve" smooth="yes"/>
			<point x="81.0009765625" y="1068"/>
			<point x="508.7036132812" y="1520"/>
			<point x="826.158203125" y="1520" type="qcurve" smooth="yes"/>
			<point x="1157.2205200195" y="1520"/>
			<point x="1576.115234375" y="1097"/>
			<point x="1576.115234375" y="752" type="qcurve" smooth="yes"/>
			<point x="1576.115234375" y="423"/>
			<point x="1144.3098754883" y="-31"/>
			<point x="831.7169189453" y="-31" type="qcurve" smooth="yes"/>
			<point x="514.7904663086" y="-31"/>
			<point x="81.0009765625" y="396"/>
		</contour>
		<contour>
			<point x="268.5638427734" y="779" type="qcurve" smooth="yes"/>
			<point x="268.5638427734" y="473.5423583984"/>
			<point x="568.2993774414" y="99.0481567383"/>
			<point x="829.2283935547" y="98.4836425781" type="qcurve" smooth="yes"/>
			<point x="1100.0145874023" y="97.919128418"/>
			<point x="1389.5523681641" y="434.1561279297"/>
			<point x="1389.5523681641" y="749" type="qcurve" smooth="yes"/>
			<point x="1389.5523681641" y="1033.4576416016"/>
			<point x="1095.1448364258" y="1380.9196166992"/>
			<point x="831.7396240234" y="1380.9196166992" type="qcurve" smooth="yes"/>
			<point x="557.6915283203" y="1380.9196166992"/>
			<point x="268.5638427734" y="1061.5844726562"/>
		</contour>
		<contour>
			<point x="573" y="-39" type="qcurve"/>
			<point x="1290" y="-274" type="line"/>
			<point x="1350" y="-274"/>
			<point x="1442" y="-186"/>
			<point x="1475" y="-132" type="qcurve"/>
			<point x="1565" y="-184" type="line"/>
			<point x="1515" y="-288"/>
			<point x="1371" y="-429"/>
			<point x="1239" y="-429" type="qcurve"/>
			<point x="540" y="-194" type="line"/>
			<point x="479" y="-194"/>
			<point x="363" y="-236"/>
			<point x="306" y="-288" type="qcurve"/>
			<point x="238" y="-224" type="line"/>
			<point x="299" y="-132"/>
			<point x="476" y="-39"/>
		</contour>
		<contour>
			<point x="511.6067504883" y="-106.2655639648" type="line"/>
			<point x="692.948425293" y="213.725769043" type="line"/>
			<point x="796.5288696289" y="163.274230957" type="line"/>
			<point x="624.0581665039" y="-138.3300170898" type="line"/>
		</contour>
	</outline>
	<anchor name="bottom" x="832" y="0"/>
	<anchor name="top" x="823" y="1502"/>
</glyph>
<glyph name="R" format="2">
	<unicode hex="0052"/>
	<advance width="1376"/>
	<outline>
		<contour>
			<point x="64.0002441406" y="0" type="line"/>
			<point x="64.0002441406" y="100.001953125" type="line"/>
			<point x="289.9990234375" y="135.001953125" type="line"/>
			<point x="291.9990234375" y="782" type="line"/>
			<point x="290.9990234375" y="1359.7177734375" type="line"/>
			<point x="82.0002441406" y="1393.7177734375" type="line"/>
			<point x="82.0002441406" y="1500" type="line"/>
			<point x="711.4127197266" y="1500" type="line" smooth="yes"/>
			<point x="941.5867919922" y="1500"/>
			<point x="1145.4505004883" y="1326"/>
			<point x="1145.4505004883" y="1164" type="qcurve" smooth="yes"/>
			<point x="1145.4505004883" y="976"/>
			<point x="922.5325927734" y="746.7097167969"/>
			<point x="717.3577880859" y="746.7097167969" type="qcurve" smooth="yes"/>
			<point x="641.1829833984" y="746.7097167969"/>
			<point x="462.0709838867" y="754.9677734375"/>
			<point x="381.8383789062" y="759.2258300781" type="qcurve"/>
			<point x="381.8383789062" y="853.9514770508" type="line"/>
			<point x="638.6338500977" y="850.9514770508" type="line" smooth="yes"/>
			<point x="803.4911499023" y="848.9514770508"/>
			<point x="951.3991088867" y="1001.4786376953"/>
			<point x="951.3991088867" y="1161" type="qcurve" smooth="yes"/>
			<point x="951.3991088867" y="1293.9075927734"/>
			<point x="811.3712768555" y="1378.3389282227"/>
			<point x="676.87109375" y="1378.3389282227" type="qcurve" smooth="yes"/>
			<point x="501.2591552734" y="1378.3389282227" type="line"/>
			<point x="467.2591552734" y="1358.3389282227" type="line"/>
			<point x="465.2591552734" y="766" type="line"/>
			<point x="467.2591552734" y="135.001953125" type="line"/>
			<point x="700.2579345703" y="100.001953125" type="line"/>
			<point x="700.2579345703" y="0" type="line"/>
		</contour>
		<contour>
			<point x="614" y="788" type="line"/>
			<point x="802" y="805" type="line"/>
			<point x="1177.4736938477" y="242" type="line" smooth="yes"/>
			<point x="1224" y="173"/>
			<point x="1358.5093994141" y="101.5219726562"/>
			<point x="1423.701965332" y="100.001953125" type="qcurve"/>
			<point x="1423.701965332" y="0" type="line"/>
			<point x="1148.1370849609" y="0" type="line"/>
			<point x="1125.1370849609" y="13" type="line"/>
		</contour>
	</outline>
	<anchor name="bottom" x="803" y="0"/>
	<anchor name="top" x="630" y="1500"/>
</glyph>
<glyph name="S" format="2">
	<unicode hex="0053"/>
	<advance width="1115"/>
	<outline>
		<contour>
			<point x="70.8327636719" y="0" type="line"/>
			<point x="70.8327636719" y="462.2753295898" type="line"/>
			<point x="189.6447753906" y="462.2753295898" type="line"/>
			<point x="210.8876953125" y="305" type="line" smooth="yes"/>
			<point x="214.0328979492" y="257.3546142578"/>
			<point x="401.469543457" y="99.0481567383"/>
			<point x="566.4969482422" y="99.0481567383" type="qcurve" smooth="yes"/>
			<point x="709.4020996094" y="99.0481567383"/>
			<point x="865.2164306641" y="238.9476318359"/>
			<point x="865.5256958008" y="369.5238037109" type="qcurve" smooth="yes"/>
			<point x="865.8349609375" y="534.8555908203"/>
			<point x="669.6775512695" y="657.6380615234"/>
			<point x="490.6724243164" y="726.8386230469" type="qcurve" smooth="yes"/>
			<point x="314.8966674805" y="787.0999755859"/>
			<point x="122.9345703125" y="975.9465332031"/>
			<point x="122.9345703125" y="1126.4591064453" type="qcurve" smooth="yes"/>
			<point x="122.9345703125" y="1281.1104736328"/>
			<point x="323.2549438477" y="1519"/>
			<point x="489.7628173828" y="1519" type="qcurve" smooth="yes"/>
			<point x="611.2789916992" y="1519"/>
			<point x="768.6900024414" y="1463.1297607422"/>
			<point x="820.4493408203" y="1407.064453125" type="qcurve"/>
			<point x="821.7590332031" y="1487" type="line"/>
			<point x="937.1789550781" y="1487" type="line"/>
			<point x="937.1789550781" y="1082.1538085938" type="line"/>
			<point x="819.4337158203" y="1082.1538085938" type="line"/>
			<point x="796.1422119141" y="1255" type="line" smooth="yes"/>
			<point x="788.1276245117" y="1318.1190185547"/>
			<point x="605.2512207031" y="1385.8712158203"/>
			<point x="511.7365722656" y="1385.8712158203" type="qcurve" smooth="yes"/>
			<point x="372.9981079102" y="1385.8712158203"/>
			<point x="299.548034668" y="1280.614440918"/>
			<point x="299.8572998047" y="1172.5194702148" type="qcurve" smooth="yes"/>
			<point x="300.1665649414" y="1068.1936645508"/>
			<point x="409.6734619141" y="944.6915893555"/>
			<point x="614.9644775391" y="878.8457641602" type="qcurve" smooth="yes"/>
			<point x="798.7506103516" y="799.4860229492"/>
			<point x="1049.0467529297" y="604.34375"/>
			<point x="1049.0467529297" y="421.8665771484" type="qcurve" smooth="yes"/>
			<point x="1049.0467529297" y="232.6462402344"/>
			<point x="793.2212524414" y="-27"/>
			<point x="587.8133544922" y="-27" type="qcurve" smooth="yes"/>
			<point x="462.5207519531" y="-27"/>
			<point x="263.4719238281" y="59"/>
			<point x="211.6148681641" y="128" type="qcurve"/>
			<point x="183.7907104492" y="0" type="line"/>
		</contour>
	</outline>
	<anchor name="bottom" x="599" y="0"/>
	<anchor name="top" x="514" y="1500"/>
</glyph>
<glyph name="T" format="2">
	<unicode hex="0054"/>
	<advance width="1281"/>
	<outline>
		<contour>
			<point x="23.9995117188" y="1050.3307495117" type="line"/>
			<point x="23.9995117188" y="1500" type="line"/>
			<point x="1256.7887573242" y="1500" type="line"/>
			<point x="1256.7887573242" y="1050.3307495117" type="line"/>
			<point x="1146.7883911133" y="1050.3307495117" type="line"/>
			<point x="1109.7857055664" y="1380.3389282227" type="line"/>
			<point x="757.3176269531" y="1380.3389282227" type="line"/>
			<point x="731.3176269531" y="1368.3389282227" type="line"/>
			<point x="728.1547851562" y="754" type="line"/>
			<point x="731.3176269531" y="135.001953125" type="line"/>
			<point x="963.31640625" y="100.001953125" type="line"/>
			<point x="963.31640625" y="0" type="line"/>
			<point x="312.7330322266" y="0" type="line"/>
			<point x="312.7330322266" y="100.001953125" type="line"/>
			<point x="550.7318115234" y="135.001953125" type="line"/>
			<point x="553.8946533203" y="754" type="line"/>
			<point x="550.7318115234" y="1366.3389282227" type="line"/>
			<point x="525.7318115234" y="1380.3389282227" type="line"/>
			<point x="163.0025634766" y="1380.3389282227" type="line"/>
			<point x="134.9998779297" y="1050.3307495117" type="line"/>
		</contour>
	</outline>
	<anchor name="bottom" x="644" y="0"/>
	<anchor name="center" x="644" y="750"/>
	<anchor name="top" x="644" y="1500"/>
	<anchor name="cy_descender" x="951" y="100"/>
</glyph>
<glyph name="U" format="2">
	<unicode hex="0055"/>
	<advance width="1657"/>
	<outline>
		<contour>
			<point x="55.1669921875" y="1393.7177734375" type="line"/>
			<point x="55.1669921875" y="1500" type="line"/>
			<point x="682.2618408203" y="1500" type="line"/>
			<point x="682.2618408203" y="1393.7177734375" type="line"/>
			<point x="459.2630615234" y="1359.7177734375" type="line"/>
			<point x="457.2630615234" y="780.4440917969" type="line"/>
			<point x="462.3330078125" y="440.0620727539" type="line" smooth="yes"/>
			<point x="465.0401611328" y="232.0620727539"/>
			<point x="701.3068237305" y="102.1771850586"/>
			<point x="849.3314208984" y="102.1771850586" type="qcurve" smooth="yes"/>
			<point x="996.8798217773" y="102.1771850586"/>
			<point x="1265.8721313477" y="229.2395019531"/>
			<point x="1258.6181640625" y="449.2395019531" type="qcurve" smooth="yes"/>
			<point x="1260.1286621094" y="775.4440917969" type="line"/>
			<point x="1258.6181640625" y="1359.7177734375" type="line"/>
			<point x="1039.6193847656" y="1394.7177734375" type="line"/>
			<point x="1039.6193847656" y="1500" type="line"/>
			<point x="1610.3102416992" y="1500" type="line"/>
			<point x="1610.3102416992" y="1394.7177734375" type="line"/>
			<point x="1400.3114624023" y="1359.7177734375" type="line"/>
			<point x="1397.6010131836" y="775.4440917969" type="line"/>
			<point x="1401.8759765625" y="412.456237793" type="line" smooth="yes"/>
			<point x="1404.9138793945" y="184.4549560547"/>
			<point x="1048.5892944336" y="-31"/>
			<point x="852.8669433594" y="-31" type="qcurve" smooth="yes"/>
			<point x="603.6640014648" y="-31"/>
			<point x="282.2028808594" y="201.2178955078"/>
			<point x="283.1657714844" y="397.0747680664" type="qcurve" smooth="yes"/>
			<point x="284.1657714844" y="780.4440917969" type="line"/>
			<point x="282.1657714844" y="1359.7177734375" type="line"/>
		</contour>
	</outline>
	<anchor name="bottom" x="832" y="0"/>
	<anchor name="ogonek" x="1042" y="0"/>
	<anchor name="top" x="832" y="1500"/>
	<anchor name="topright" x="1590" y="1500"/>
</glyph>
<glyph name="V" format="2">
	<unicode hex="0056"/>
	<advance width="1470"/>
	<outline>
		<contour>
			<point x="-51.0012207031" y="1393.7177734375" type="line"/>
			<point x="-51.0012207031" y="1500" type="line"/>
			<point x="534.8307495117" y="1500" type="line"/>
			<point x="534.8307495117" y="1393.7177734375" type="line"/>
			<point x="332.8325805664" y="1359.7177734375" type="line"/>
			<point x="553.985168457" y="806.8623046875" type="line"/>
			<point x="717.6098022461" y="365.0035400391" type="line"/>
			<point x="755.6220092773" y="234.729309082" type="line"/>
			<point x="759.6220092773" y="234.729309082" type="line"/>
			<point x="799.0090332031" y="364.7062988281" type="line"/>
			<point x="957.1618652344" y="781.7513427734" type="line"/>
			<point x="1184.7470092773" y="1355.06640625" type="line"/>
			<point x="987.748840332" y="1389.06640625" type="line"/>
			<point x="987.748840332" y="1495.3486328125" type="line"/>
			<point x="1510.3340454102" y="1500" type="line"/>
			<point x="1510.3340454102" y="1393.7177734375" type="line"/>
			<point x="1329.3357543945" y="1359.7177734375" type="line"/>
			<point x="1078.5402832031" y="726.4080810547" type="line"/>
			<point x="788.1358642578" y="-7" type="line"/>
			<point x="664.9514160156" y="-7" type="line"/>
			<point x="381.9907836914" y="752.2045288086" type="line"/>
			<point x="138.9970703125" y="1359.7177734375" type="line"/>
		</contour>
	</outline>
	<anchor name="bottom" x="723" y="0"/>
	<anchor name="top" x="733" y="1500"/>
</glyph>
<glyph name="W" format="2">
	<unicode hex="0057"/>
	<advance width="2133"/>
	<outline>
		<contour>
			<point x="635.3068847656" y="-5" type="line"/>
			<point x="348.0637817383" y="777.5557250977" type="line"/>
			<point x="128.9970703125" y="1376.7177734375" type="line"/>
			<point x="-67.0017089844" y="1393.7177734375" type="line"/>
			<point x="-67.0017089844" y="1500" type="line"/>
			<point x="559.8843994141" y="1500" type="line"/>
			<point x="559.8843994141" y="1393.7177734375" type="line"/>
			<point x="327.8856201172" y="1377.7177734375" type="line"/>
			<point x="509.8353271484" y="833.9055786133" type="line"/>
			<point x="675" y="370" type="line"/>
			<point x="710" y="256" type="line"/>
			<point x="720" y="256" type="line"/>
			<point x="759" y="370" type="line"/>
			<point x="868" y="674" type="line"/>
			<point x="996" y="1038" type="line"/>
			<point x="882.2209472656" y="1385.8779296875" type="line"/>
			<point x="685.2221679688" y="1404.8779296875" type="line"/>
			<point x="685.2221679688" y="1500" type="line"/>
			<point x="1295.3049316406" y="1500" type="line"/>
			<point x="1295.3049316406" y="1404.8779296875" type="line"/>
			<point x="1082.3061523438" y="1386.8779296875" type="line"/>
			<point x="1266.8620605469" y="778.8471069336" type="line"/>
			<point x="1397" y="370" type="line"/>
			<point x="1430" y="256" type="line"/>
			<point x="1440" y="256" type="line"/>
			<point x="1476" y="370" type="line"/>
			<point x="1629" y="803" type="line"/>
			<point x="1833.8595581055" y="1377.7177734375" type="line"/>
			<point x="1611.8607788086" y="1393.7177734375" type="line"/>
			<point x="1611.8607788086" y="1500" type="line"/>
			<point x="2200.2621459961" y="1500" type="line"/>
			<point x="2200.2621459961" y="1393.7177734375" type="line"/>
			<point x="1998.2633666992" y="1376.7177734375" type="line"/>
			<point x="1747" y="760" type="line"/>
			<point x="1480.0135498047" y="-5" type="line"/>
			<point x="1339.0772705078" y="-5" type="line"/>
			<point x="1096" y="750" type="line"/>
			<point x="1060" y="866" type="line"/>
			<point x="1050" y="866" type="line"/>
			<point x="1014" y="750" type="line"/>
			<point x="773.0588989258" y="-5" type="line"/>
		</contour>
	</outline>
	<anchor name="bottom" x="1051" y="0"/>
	<anchor name="top" x="1051" y="1500"/>
</glyph>
<glyph name="X" format="2">
	<unicode hex="0058"/>
	<advance width="1283"/>
	<outline>
		<contour>
			<point x="-35.763671875" y="0" type="line"/>
			<point x="-35.763671875" y="100.001953125" type="line"/>
			<point x="136.234375" y="136.001953125" type="line"/>
			<point x="575" y="786" type="line"/>
			<point x="189.2028808594" y="1359.7177734375" type="line"/>
			<point x="7.2047119141" y="1393.7177734375" type="line"/>
			<point x="7.2047119141" y="1500" type="line"/>
			<point x="585.8331298828" y="1500" type="line"/>
			<point x="585.8331298828" y="1393.7177734375" type="line"/>
			<point x="393.8356933594" y="1359.7177734375" type="line"/>
			<point x="601" y="1043" type="line"/>
			<point x="673" y="929" type="line"/>
			<point x="683" y="929" type="line"/>
			<point x="751" y="1043" type="line"/>
			<point x="945.6869506836" y="1360.7177734375" type="line"/>
			<point x="769.6893920898" y="1393.7177734375" type="line"/>
			<point x="769.6893920898" y="1500" type="line"/>
			<point x="1285.7169799805" y="1500" type="line"/>
			<point x="1285.7169799805" y="1393.7177734375" type="line"/>
			<point x="1105.7189331055" y="1359.7177734375" type="line"/>
			<point x="753" y="818" type="line"/>
			<point x="1229.2455444336" y="135.001953125" type="line"/>
			<point x="1426.2437133789" y="100.001953125" type="line"/>
			<point x="1426.2437133789" y="0" type="line"/>
			<point x="835.4524536133" y="0" type="line"/>
			<point x="835.4524536133" y="100.001953125" type="line"/>
			<point x="1021.4498901367" y="135.001953125" type="line"/>
			<point x="727" y="562" type="line"/>
			<point x="655" y="676" type="line"/>
			<point x="645" y="676" type="line"/>
			<point x="577" y="562" type="line"/>
			<point x="297.2663574219" y="135.001953125" type="line"/>
			<point x="471.2639160156" y="100.001953125" type="line"/>
			<point x="471.2639160156" y="0" type="line"/>
		</contour>
	</outline>
	<anchor name="bottom" x="661" y="0"/>
	<anchor name="top" x="673" y="1500"/>
	<anchor name="cy_descender" x="1386" y="100"/>
	<anchor name="center" x="663" y="811"/>
</glyph>
<glyph name="Y" format="2">
	<unicode hex="0059"/>
	<advance width="1262"/>
	<outline>
		<contour>
			<point x="302.8004150391" y="0" type="line"/>
			<point x="302.8004150391" y="100.001953125" type="line"/>
			<point x="554.7991943359" y="135.001953125" type="line"/>
			<point x="556.9620361328" y="622.9571533203" type="line"/>
			<point x="353.9958496094" y="1002.3202514648" type="line"/>
			<point x="137.9970703125" y="1359.7177734375" type="line"/>
			<point x="-72.0017089844" y="1393.7177734375" type="line"/>
			<point x="-72.0017089844" y="1500" type="line"/>
			<point x="528.3206176758" y="1500" type="line"/>
			<point x="528.3206176758" y="1393.7177734375" type="line"/>
			<point x="338.3218383789" y="1359.7177734375" type="line"/>
			<point x="501.0153808594" y="1074.8975219727" type="line"/>
			<point x="659" y="783" type="line"/>
			<point x="669" y="783" type="line"/>
			<point x="824.7438354492" y="1093.6412353516" type="line"/>
			<point x="974.088684082" y="1359.7177734375" type="line"/>
			<point x="777.0899047852" y="1393.7177734375" type="line"/>
			<point x="777.0899047852" y="1500" type="line"/>
			<point x="1320.469543457" y="1500" type="line"/>
			<point x="1320.469543457" y="1393.7177734375" type="line"/>
			<point x="1125.4707641602" y="1359.7177734375" type="line"/>
			<point x="929.1822509766" y="1025.7128295898" type="line"/>
			<point x="734.2052612305" y="666.1885375977" type="line"/>
			<point x="734.8035888672" y="135.001953125" type="line"/>
			<point x="982.8023681641" y="100.001953125" type="line"/>
			<point x="982.8023681641" y="0" type="line"/>
		</contour>
	</outline>
	<anchor name="bottom" x="636" y="0"/>
	<anchor name="top" x="640" y="1500"/>
	<anchor name="tonos" x="-100" y="1500"/>
	<anchor name="center" x="636" y="582"/>
</glyph>
<glyph name="Z" format="2">
	<unicode hex="005A"/>
	<advance width="1152"/>
	<outline>
		<contour>
			<point x="15.8702392578" y="0" type="line"/>
			<point x="-16.1135864258" y="94.5159912109" type="line"/>
			<point x="889.311706543" y="1370.3389282227" type="line"/>
			<point x="883.311706543" y="1380.3389282227" type="line"/>
			<point x="211.5622558594" y="1380.3389282227" type="line"/>
			<point x="165.8991699219" y="1116.0646972656" type="line"/>
			<point x="56.2269287109" y="1116.0646972656" type="line"/>
			<point x="56.2269287109" y="1500" type="line"/>
			<point x="1091.443359375" y="1500" type="line"/>
			<point x="1091.443359375" y="1398.532409668" type="line"/>
			<point x="193.0419311523" y="125.0159301758" type="line"/>
			<point x="198.0419311523" y="114.0159301758" type="line"/>
			<point x="980.9141235352" y="114.0159301758" type="line"/>
			<point x="1054.4663085938" y="374.2794189453" type="line"/>
			<point x="1164.8958129883" y="374.2794189453" type="line"/>
			<point x="1120.5435791016" y="0" type="line"/>
		</contour>
	</outline>
	<anchor name="bottom" x="583" y="0"/>
	<anchor name="top" x="583" y="1500"/>
	<anchor name="_liga" x="0" y="0"/>
</glyph>
<glyph name="a" format="2">
	<unicode hex="0061"/>
	<advance width="1065"/>
	<outline>
		<contour>
			<point x="51.2846679688" y="254.7541503906" type="qcurve" smooth="yes"/>
			<point x="51.2846679688" y="391.1312255859"/>
			<point x="416" y="583"/>
			<point x="780" y="630" type="qcurve"/>
			<point x="722.9915161133" y="557.7326660156" type="line"/>
			<point x="497.9104003906" y="526.7498168945"/>
			<point x="226.7819824219" y="376.8382568359"/>
			<point x="226.7819824219" y="257.4390869141" type="qcurve" smooth="yes"/>
			<point x="226.7819824219" y="175.9289550781"/>
			<point x="320.4763183594" y="80.739074707"/>
			<point x="429.0446777344" y="80.739074707" type="qcurve" smooth="yes"/>
			<point x="497.1599121094" y="80.739074707"/>
			<point x="660.7013549805" y="191.6716308594"/>
			<point x="674.9531860352" y="234.7210083008" type="qcurve"/>
			<point x="677.0149536133" y="633.3303222656" type="line" smooth="yes"/>
			<point x="677.5458374023" y="807.703125"/>
			<point x="551.6012573242" y="909.2899169922"/>
			<point x="458.4412841797" y="909.2899169922" type="qcurve" smooth="yes"/>
			<point x="368.4781494141" y="909.2899169922"/>
			<point x="292.8735351562" y="876.955078125"/>
			<point x="275.7375488281" y="865.1157226562" type="qcurve"/>
			<point x="272.3687744141" y="851.4235839844"/>
			<point x="297.2954101562" y="814.3360595703"/>
			<point x="300.3695678711" y="791.0272216797" type="qcurve" smooth="yes"/>
			<point x="307.330871582" y="750.6315917969"/>
			<point x="258.7678833008" y="692.2727050781"/>
			<point x="213.6560668945" y="692.2727050781" type="qcurve" smooth="yes"/>
			<point x="164.870300293" y="692.2727050781"/>
			<point x="108.6752319336" y="756.1007080078"/>
			<point x="108.6752319336" y="822.5831298828" type="qcurve" smooth="yes"/>
			<point x="108.6752319336" y="891.7684326172"/>
			<point x="305.8201904297" y="1024.1022949219"/>
			<point x="481.4078979492" y="1024.1022949219" type="qcurve" smooth="yes"/>
			<point x="650.246887207" y="1024.1022949219"/>
			<point x="834.3637084961" y="848.1959228516"/>
			<point x="836.3637084961" y="644.1398925781" type="qcurve" smooth="yes"/>
			<point x="840.3637084961" y="107" type="line"/>
			<point x="993.362487793" y="80" type="line"/>
			<point x="993.362487793" y="0" type="line"/>
			<point x="729.5841674805" y="0" type="line"/>
			<point x="690.5090942383" y="42.8280029297" type="line"/>
			<point x="675.4840698242" y="146.3326416016" type="line"/>
			<point x="646.1831665039" y="85.3848876953"/>
			<point x="452.813293457" y="-15"/>
			<point x="320.8325805664" y="-15" type="qcurve" smooth="yes"/>
			<point x="213.3319091797" y="-15"/>
			<point x="51.2846679688" y="139.6759033203"/>
		</contour>
	</outline>
	<anchor name="bottom" x="548" y="0"/>
	<anchor name="ogonek" x="878" y="0"/>
	<anchor name="top" x="514" y="1000"/>
</glyph>
<glyph name="d" format="2">
	<unicode hex="0064"/>
	<advance width="1188"/>
	<outline>
		<contour>
			<point x="64.0947265625" y="484.2817382812" type="qcurve" smooth="yes"/>
			<point x="64.0947265625" y="715.3424072266"/>
			<point x="330.3334960938" y="1022.1022949219"/>
			<point x="516.85546875" y="1022.1022949219" type="qcurve" smooth="yes"/>
			<point x="622.7899169922" y="1022.1022949219"/>
			<point x="818.1206054688" y="953.7132568359"/>
			<point x="836.2047119141" y="917.9293212891" type="qcurve"/>
			<point x="830.1666259766" y="1400.9965820312" type="line"/>
			<point x="660.1684570312" y="1421.9965820312" type="line"/>
			<point x="660.1684570312" y="1519.9965820312" type="line"/>
			<point x="965.0268554688" y="1533.9965820312" type="line"/>
			<point x="975.8397216797" y="1528.9965820312" type="line"/>
			<point x="998.6427001953" y="1507.9965820312" type="line"/>
			<point x="994.98828125" y="537.5924682617" type="line"/>
			<point x="1006.3414306641" y="107" type="line"/>
			<point x="1159.3402099609" y="80" type="line"/>
			<point x="1159.3402099609" y="0" type="line"/>
			<point x="890.2823486328" y="0" type="line"/>
			<point x="860.8698730469" y="24" type="line"/>
			<point x="841.6258544922" y="152.3193359375" type="line"/>
			<point x="800.2272949219" y="77.6441040039"/>
			<point x="613.5249023438" y="-11"/>
			<point x="505.8065185547" y="-11" type="qcurve" smooth="yes"/>
			<point x="333.6823730469" y="-11"/>
			<point x="64.0947265625" y="261.9422607422"/>
		</contour>
		<contour>
			<point x="245.0611572266" y="503.0511474609" type="qcurve" smooth="yes"/>
			<point x="245.0611572266" y="306.7034912109"/>
			<point x="422.9992675781" y="110.5158081055"/>
			<point x="543.6175537109" y="109.9973144531" type="qcurve" smooth="yes"/>
			<point x="623.6578369141" y="109.4788208008"/>
			<point x="796.6964111328" y="192.5541381836"/>
			<point x="838.2764892578" y="266.7478637695" type="qcurve"/>
			<point x="844.4617919922" y="536.0777587891" type="line"/>
			<point x="843.4617919922" y="763.4083251953" type="line"/>
			<point x="811.8923339844" y="837.0458984375"/>
			<point x="645.8930664062" y="918.7714233398"/>
			<point x="556.0728759766" y="918.7714233398" type="qcurve" smooth="yes"/>
			<point x="441.3950195312" y="918.7714233398"/>
			<point x="245.0611572266" y="689.6331787109"/>
		</contour>
	</outline>
	<anchor name="bottom" x="604" y="0"/>
	<anchor name="center" x="876" y="1202"/>
	<anchor name="top" x="604" y="1534"/>
	<anchor name="topright" x="961" y="1000"/>
	<anchor name="liga" x="1207" y="0"/>
</glyph>
<glyph name="e" format="2">
	<unicode hex="0065"/>
	<advance width="1009"/>
	<outline>
		<contour>
			<point x="63.6708984375" y="501.3137207031" type="qcurve" smooth="yes"/>
			<point x="63.6708984375" y="734.3305664062"/>
			<point x="331.4781494141" y="1023.9692382812"/>
			<point x="546.8531494141" y="1023.9692382812" type="qcurve" smooth="yes"/>
			<point x="741.4575805664" y="1023.9692382812"/>
			<point x="957.7419433594" y="788.5966796875"/>
			<point x="979.4587402344" y="598.9083862305" type="qcurve"/>
			<point x="979.4587402344" y="544.1686401367" type="line"/>
			<point x="182.2283935547" y="544.1686401367" type="line"/>
			<point x="182.0430908203" y="633.9816894531" type="line"/>
			<point x="815.3937988281" y="633.9816894531" type="line"/>
			<point x="800.9689941406" y="751.6843261719"/>
			<point x="645.6533203125" y="913.0458984375"/>
			<point x="515.6252441406" y="913.0458984375" type="qcurve" smooth="yes"/>
			<point x="389.0069580078" y="913.0458984375"/>
			<point x="238.526184082" y="712.7507324219"/>
			<point x="239.0446777344" y="521.9313964844" type="qcurve" smooth="yes"/>
			<point x="240.5631713867" y="304.1115722656"/>
			<point x="462.7502441406" y="89.9979858398"/>
			<point x="616.3685302734" y="89.9979858398" type="qcurve" smooth="yes"/>
			<point x="716.8594970703" y="89.9979858398"/>
			<point x="848.1572265625" y="142.7767333984"/>
			<point x="878.2228393555" y="181.7404174805" type="qcurve"/>
			<point x="926.5180664062" y="130.2972412109" type="line"/>
			<point x="888.1596069336" y="70.6301269531"/>
			<point x="723.1026611328" y="-22"/>
			<point x="580.0551757812" y="-22" type="qcurve" smooth="yes"/>
			<point x="344.5979003906" y="-22"/>
			<point x="63.6708984375" y="254.0380859375"/>
		</contour>
	</outline>
	<anchor name="bottom" x="578" y="0"/>
	<anchor name="ogonek" x="744" y="0"/>
	<anchor name="top" x="539" y="1000"/>
</glyph>
<glyph name="g" format="2">
	<unicode hex="0067"/>
	<advance width="1052"/>
	<outline>
		<contour>
			<point x="42.2398681641" y="-265.3616943359" type="qcurve" smooth="yes"/>
			<point x="42.2398681641" y="-171.6394042969"/>
			<point x="145.0956420898" y="-39.6317749023"/>
			<point x="269.1175537109" y="13.5943603516" type="qcurve"/>
			<point x="372.0604858398" y="-5.4323120117" type="line"/>
			<point x="225.6779785156" y="-78.989440918"/>
			<point x="180.4150390625" y="-193.1087036133"/>
			<point x="180.4150390625" y="-250.787109375" type="qcurve" smooth="yes"/>
			<point x="180.4150390625" y="-340.7410888672"/>
			<point x="371.5131835938" y="-413.4095458984"/>
			<point x="563.5524291992" y="-413.4095458984" type="qcurve" smooth="yes"/>
			<point x="742.0814208984" y="-413.4095458984"/>
			<point x="946.026550293" y="-342.8669433594"/>
			<point x="946.026550293" y="-238.8669433594" type="qcurve" smooth="yes"/>
			<point x="946.026550293" y="-144.7338867188"/>
			<point x="797.8647460938" y="-107.0726318359"/>
			<point x="524.7752685547" y="-92.7541503906" type="qcurve" smooth="yes"/>
			<point x="328.0782470703" y="-79.9672851562"/>
			<point x="97.8623046875" y="17.9388427734"/>
			<point x="97.8623046875" y="118.1701660156" type="qcurve" smooth="yes"/>
			<point x="97.8623046875" y="218.8247070312"/>
			<point x="253.4547119141" y="316.6853637695"/>
			<point x="314.0695800781" y="337.5881958008" type="qcurve"/>
			<point x="353.9135131836" y="276.0633544922" type="line"/>
			<point x="299.7704467773" y="252.5693359375"/>
			<point x="224.9874267578" y="194.5207519531"/>
			<point x="224.9874267578" y="138.3955688477" type="qcurve" smooth="yes"/>
			<point x="224.9874267578" y="99.9823608398"/>
			<point x="368.0478515625" y="62.6405029297"/>
			<point x="574.2215576172" y="53.2239990234" type="qcurve" smooth="yes"/>
			<point x="819.5360107422" y="44.2105712891"/>
			<point x="1073.497253418" y="-41.3176269531"/>
			<point x="1073.497253418" y="-185.0433349609" type="qcurve" smooth="yes"/>
			<point x="1073.497253418" y="-322.8786621094"/>
			<point x="822.4193725586" y="-510"/>
			<point x="523.8078613281" y="-510" type="qcurve" smooth="yes"/>
			<point x="303.9641113281" y="-510"/>
			<point x="42.2398681641" y="-382.5926513672"/>
		</contour>
		<contour>
			<point x="110.9993896484" y="638.8580322266" type="qcurve" smooth="yes"/>
			<point x="110.9993896484" y="802.2216796875"/>
			<point x="352.3575439453" y="1023.9692382812"/>
			<point x="531.0655517578" y="1023.9692382812" type="qcurve" smooth="yes"/>
			<point x="705.6057128906" y="1023.9692382812"/>
			<point x="949.43359375" y="821.2216796875"/>
			<point x="949.43359375" y="652.1184082031" type="qcurve" smooth="yes"/>
			<point x="950.43359375" y="499.3724365234"/>
			<point x="708.4484863281" y="200.1437988281"/>
			<point x="539.0587158203" y="200.1437988281" type="qcurve" smooth="yes"/>
			<point x="358.3850097656" y="200.1437988281"/>
			<point x="110.9993896484" y="476.9033203125"/>
		</contour>
		<contour>
			<point x="288.7805175781" y="646.9293212891" type="qcurve" smooth="yes"/>
			<point x="288.7805175781" y="492.9923095703"/>
			<point x="417.5902099609" y="301.4006958008"/>
			<point x="532.7093505859" y="301.4006958008" type="qcurve" smooth="yes"/>
			<point x="657.8284912109" y="301.4006958008"/>
			<point x="769.5906982422" y="496.9923095703"/>
			<point x="769.5906982422" y="646.9293212891" type="qcurve" smooth="yes"/>
			<point x="769.5906982422" y="783.8663330078"/>
			<point x="650.5408935547" y="912.4904174805"/>
			<point x="534.4217529297" y="912.4904174805" type="qcurve" smooth="yes"/>
			<point x="410.3026123047" y="912.4904174805"/>
			<point x="288.7805175781" y="781.8663330078"/>
		</contour>
		<contour>
			<point x="609.4304199219" y="908.6746826172" type="line"/>
			<point x="594.4304199219" y="991.9692382812" type="line"/>
			<point x="1058.4969482422" y="992.9692382812" type="line"/>
			<point x="1058.4969482422" y="890.0082397461" type="line"/>
		</contour>
	</outline>
	<anchor name="bottom" x="524" y="-416"/>
	<anchor name="top" x="484" y="1000"/>
</glyph>
<glyph name="k" format="2">
	<unicode hex="006B"/>
	<advance width="1127"/>
	<outline>
		<contour>
			<point x="76.2142944336" y="0" type="line"/>
			<point x="76.2142944336" y="80" type="line"/>
			<point x="224.2130737305" y="107" type="line"/>
			<point x="227.2748413086" y="527" type="line"/>
			<point x="224.2130737305" y="1400.9965820312" type="line"/>
			<point x="35.2139282227" y="1421.9965820312" type="line"/>
			<point x="35.2139282227" y="1519.9965820312" type="line"/>
			<point x="368.7471313477" y="1533.9965820312" type="line"/>
			<point x="376.7471313477" y="1528.9965820312" type="line"/>
			<point x="385.7471313477" y="1507.9965820312" type="line"/>
			<point x="385.6853637695" y="527" type="line"/>
			<point x="394.7471313477" y="107" type="line"/>
			<point x="535.7459106445" y="80" type="line"/>
			<point x="535.7459106445" y="0" type="line"/>
		</contour>
		<contour>
			<point x="292.4625244141" y="371.4631958008" type="line"/>
			<point x="290.5689697266" y="491.470703125" type="line"/>
			<point x="811.7166137695" y="889.9692382812" type="line"/>
			<point x="687.7178344727" y="911.9692382812" type="line"/>
			<point x="687.7178344727" y="1001.9692382812" type="line"/>
			<point x="1092.1329345703" y="1001.9692382812" type="line"/>
			<point x="1092.1329345703" y="911.9692382812" type="line"/>
			<point x="954.1341552734" y="888.9692382812" type="line"/>
		</contour>
		<contour>
			<point x="493.577331543" y="567.3297729492" type="line"/>
			<point x="611.9587402344" y="664.977355957" type="line"/>
			<point x="1038.3527832031" y="107" type="line"/>
			<point x="1171.3515625" y="80" type="line"/>
			<point x="1171.3515625" y="0" type="line"/>
			<point x="844.8000488281" y="0" type="line"/>
			<point x="828.6370849609" y="75.1594238281" type="line"/>
			<point x="861.4514160156" y="90.396484375" type="line"/>
		</contour>
	</outline>
	<anchor name="bottom" x="608" y="0"/>
	<anchor name="top" x="578" y="1534"/>
</glyph>
<glyph name="l" format="2">
	<unicode hex="006C"/>
	<advance width="632"/>
	<outline>
		<contour>
			<point x="61" y="0" type="line"/>
			<point x="61" y="83" type="line"/>
			<point x="239.9987792969" y="107" type="line"/>
			<point x="244.060546875" y="527" type="line"/>
			<point x="241.9987792969" y="1390.37890625" type="line"/>
			<point x="59" y="1411.37890625" type="line"/>
			<point x="59" y="1509.37890625" type="line"/>
			<point x="366.2357177734" y="1533.9965820312" type="line"/>
			<point x="384.3225097656" y="1528.9965820312" type="line"/>
			<point x="405.5328369141" y="1507.9965820312" type="line"/>
			<point x="403.4710693359" y="527" type="line"/>
			<point x="409.5328369141" y="107" type="line"/>
			<point x="579.5316162109" y="83" type="line"/>
			<point x="579.5316162109" y="0" type="line"/>
		</contour>
	</outline>
	<anchor name="bottom" x="316" y="0"/>
	<anchor name="center" x="316" y="750"/>
	<anchor name="top" x="316" y="1534"/>
	<anchor name="topright" x="367" y="1000"/>
	<anchor name="centerright" x="746" y="680"/>
	<anchor name="yu_dash" x="321" y="500"/>
	<anchor name="liga" x="632" y="0"/>
</glyph>
<glyph name="n" format="2">
	<unicode hex="006E"/>
	<advance width="1243"/>
	<outline>
		<contour>
			<point x="76.2142944336" y="0" type="line"/>
			<point x="76.2142944336" y="80" type="line"/>
			<point x="224.2130737305" y="107" type="line"/>
			<point x="227.2748413086" y="529.1156005859" type="line"/>
			<point x="224.2130737305" y="856.3515625" type="line"/>
			<point x="62.2142944336" y="876.3515625" type="line"/>
			<point x="62.2142944336" y="977.3515625" type="line"/>
			<point x="331.1661987305" y="1001.9692382812" type="line"/>
			<point x="359.4750366211" y="984.9692382812" type="line"/>
			<point x="386.7471313477" y="852.8175048828" type="line"/>
			<point x="437.8723144531" y="925.1623535156"/>
			<point x="637.8988647461" y="1022.9825439453"/>
			<point x="761.250793457" y="1022.9825439453" type="qcurve" smooth="yes"/>
			<point x="896.5044555664" y="1022.9825439453"/>
			<point x="1044.1885375977" y="898.5030517578"/>
			<point x="1044.1885375977" y="765.3077392578" type="qcurve" smooth="yes"/>
			<point x="1044.1885375977" y="690.54296875"/>
			<point x="1041.5747680664" y="535.1022949219"/>
			<point x="1041.5747680664" y="529.1156005859" type="qcurve" smooth="yes"/>
			<point x="1049.2291870117" y="107" type="line"/>
			<point x="1186.2279663086" y="80" type="line"/>
			<point x="1186.2279663086" y="0" type="line"/>
			<point x="750.7581176758" y="0" type="line"/>
			<point x="750.7581176758" y="80" type="line"/>
			<point x="880.7568969727" y="107" type="line"/>
			<point x="882.7568969727" y="529.1156005859" type="line"/>
			<point x="882.7568969727" y="720.1560668945" type="line" smooth="yes"/>
			<point x="882.7568969727" y="812.6849365234"/>
			<point x="775.8577270508" y="880.7633056641"/>
			<point x="679.4535522461" y="880.7633056641" type="qcurve" smooth="yes"/>
			<point x="584.6923828125" y="880.7633056641"/>
			<point x="416.9024047852" y="789.1209106445"/>
			<point x="386.2162475586" y="719.678894043" type="qcurve"/>
			<point x="385.6853637695" y="529.1156005859" type="line"/>
			<point x="394.7471313477" y="107" type="line"/>
			<point x="535.7459106445" y="80" type="line"/>
			<point x="535.7459106445" y="0" type="line"/>
		</contour>
	</outline>
	<anchor name="bottom" x="632" y="0"/>
	<anchor name="top" x="632" y="1000"/>
	<anchor name="liga" x="1264" y="0"/>
</glyph>
<glyph name="p" format="2">
	<unicode hex="0070"/>
	<advance width="1127"/>
	<outline>
		<contour>
			<point x="51.799987793" y="-480" type="line"/>
			<point x="51.799987793" y="-400" type="line"/>
			<point x="193.9985351562" y="-373" type="line"/>
			<point x="197.9985351562" y="427.9846191406" type="line"/>
			<point x="195.9985351562" y="866.9692382812" type="line"/>
			<point x="39.799987793" y="886.9692382812" type="line"/>
			<point x="39.799987793" y="987.9692382812" type="line"/>
			<point x="320.0017089844" y="1001.9692382812" type="line"/>
			<point x="343.0017089844" y="983.9692382812" type="line"/>
			<point x="357.0017089844" y="844.9692382812" type="line"/>
			<point x="389.9310302734" y="915.0091552734"/>
			<point x="549.4510498047" y="1022.1022949219"/>
			<point x="648.3828125" y="1022.1022949219" type="qcurve" smooth="yes"/>
			<point x="831.8375244141" y="1022.1022949219"/>
			<point x="1062.5609130859" y="745.1469726562"/>
			<point x="1062.5609130859" y="530.9846191406" type="qcurve" smooth="yes"/>
			<point x="1062.5609130859" y="296.383605957"/>
			<point x="818.7349243164" y="-12"/>
			<point x="634.2270507812" y="-12" type="qcurve" smooth="yes"/>
			<point x="524.8540039062" y="-12"/>
			<point x="394.76953125" y="48"/>
			<point x="360.0017089844" y="89" type="qcurve"/>
			<point x="362.0017089844" y="-373" type="line"/>
			<point x="517.1998901367" y="-400" type="line"/>
			<point x="517.1998901367" y="-480" type="line"/>
		</contour>
		<contour>
			<point x="360.0017089844" y="263.2562255859" type="line"/>
			<point x="373.318359375" y="187.9973144531"/>
			<point x="509.115234375" y="78.9240112305"/>
			<point x="596.2946777344" y="78.9240112305" type="qcurve" smooth="yes"/>
			<point x="716.9427490234" y="78.9240112305"/>
			<point x="882.65625" y="305.6429443359"/>
			<point x="882.65625" y="501.9846191406" type="qcurve" smooth="yes"/>
			<point x="882.65625" y="687.8197021484"/>
			<point x="732.7237548828" y="895.7714233398"/>
			<point x="617.0756835938" y="895.7714233398" type="qcurve" smooth="yes"/>
			<point x="518.6086425781" y="895.7714233398"/>
			<point x="387.1468505859" y="798.048828125"/>
			<point x="357.0017089844" y="723.4904174805" type="qcurve"/>
			<point x="357.0017089844" y="427.9846191406" type="line"/>
		</contour>
	</outline>
	<anchor name="bottom" x="599" y="0"/>
	<anchor name="top" x="599" y="1000"/>
</glyph>
<glyph name="q" format="2">
	<unicode hex="0071"/>
	<advance width="1126"/>
	<outline>
		<contour>
			<point x="64.5791015625" y="491.9979248047" type="qcurve" smooth="yes"/>
			<point x="64.5791015625" y="739.490234375"/>
			<point x="324.4261474609" y="1037.1022949219"/>
			<point x="507.5087890625" y="1037.1022949219" type="qcurve" smooth="yes"/>
			<point x="599.8223876953" y="1037.1022949219"/>
			<point x="746.0473632812" y="973.9958496094"/>
			<point x="773.8494873047" y="928.9293212891" type="qcurve"/>
			<point x="798.8494873047" y="1021.1022949219" type="line"/>
			<point x="1120.1970214844" y="1002.1022949219" type="line"/>
			<point x="1120.1970214844" y="908.6022949219" type="line"/>
			<point x="934.1982421875" y="891.6022949219" type="line"/>
			<point x="932.1982421875" y="435.8914794922" type="line"/>
			<point x="934.1982421875" y="-373" type="line"/>
			<point x="1108.1970214844" y="-400" type="line"/>
			<point x="1108.1970214844" y="-480" type="line"/>
			<point x="564.8507080078" y="-480" type="line"/>
			<point x="564.8507080078" y="-400" type="line"/>
			<point x="768.8494873047" y="-373" type="line"/>
			<point x="773.8494873047" y="161.2794189453" type="line"/>
			<point x="755.5440673828" y="89.1596679688"/>
			<point x="629.8433837891" y="-17"/>
			<point x="478.2991943359" y="-17" type="qcurve" smooth="yes"/>
			<point x="313.2071533203" y="-17"/>
			<point x="64.5791015625" y="255.5322265625"/>
		</contour>
		<contour>
			<point x="238.1131591797" y="506.0511474609" type="qcurve" smooth="yes"/>
			<point x="238.1131591797" y="303.4681396484"/>
			<point x="399.689453125" y="102.4788208008"/>
			<point x="524.3375244141" y="102.4788208008" type="qcurve" smooth="yes"/>
			<point x="616.6541748047" y="102.4788208008"/>
			<point x="744.2663574219" y="196.7738037109"/>
			<point x="773.8494873047" y="275.1154785156" type="qcurve"/>
			<point x="773.8494873047" y="794.6192016602" type="line"/>
			<point x="745.9787597656" y="858.8499145508"/>
			<point x="618.0314941406" y="938.9563598633"/>
			<point x="538.8309326172" y="938.9563598633" type="qcurve" smooth="yes"/>
			<point x="404.1828613281" y="938.9563598633"/>
			<point x="238.1131591797" y="697.6331787109"/>
		</contour>
	</outline>
	<anchor name="bottom" x="594" y="0"/>
	<anchor name="top" x="594" y="1000"/>
</glyph>
<glyph name="r" format="2">
	<unicode hex="0072"/>
	<advance width="821"/>
	<outline>
		<contour>
			<point x="76" y="0" type="line"/>
			<point x="76" y="80" type="line"/>
			<point x="223.9987792969" y="107" type="line"/>
			<point x="227.060546875" y="528.9692382812" type="line"/>
			<point x="223.9987792969" y="851.0427246094" type="line"/>
			<point x="62" y="886.9692382812" type="line"/>
			<point x="62" y="987.9692382812" type="line"/>
			<point x="336.2607421875" y="1001.9692382812" type="line"/>
			<point x="369.8784179688" y="984.9692382812" type="line"/>
			<point x="388.5328369141" y="834.153503418" type="line"/>
			<point x="433.5478515625" y="894.9692382812"/>
			<point x="598.4127807617" y="1012.9559326172"/>
			<point x="729.3677368164" y="1012.9692382812" type="qcurve" smooth="yes"/>
			<point x="814.8648681641" y="1012.9692382812" type="line"/>
			<point x="814.8648681641" y="758.2825927734" type="line"/>
			<point x="707.8621826172" y="758.2825927734" type="line"/>
			<point x="665.6772460938" y="898.4897460938" type="line"/>
			<point x="598.7012939453" y="893.3048095703"/>
			<point x="445.1218261719" y="798.4527587891"/>
			<point x="388.5328369141" y="698.786315918" type="qcurve"/>
			<point x="386.5328369141" y="528.9692382812" type="line"/>
			<point x="394.5328369141" y="107" type="line"/>
			<point x="565.5316162109" y="80" type="line"/>
			<point x="565.5316162109" y="0" type="line"/>
		</contour>
	</outline>
	<anchor name="bottom" x="432" y="0"/>
	<anchor name="top" x="486" y="1000"/>
</glyph>
<glyph name="s" format="2">
	<unicode hex="0073"/>
	<advance width="918"/>
	<outline>
		<contour>
			<point x="94.6626586914" y="10.5895996094" type="line"/>
			<point x="94.6626586914" y="298.8208007812" type="line"/>
			<point x="202.1838378906" y="298.8208007812" type="line"/>
			<point x="213.8134765625" y="274" type="line" smooth="yes"/>
			<point x="236.7404174805" y="175.1905517578"/>
			<point x="342.4448852539" y="91.9233398438"/>
			<point x="468.4216308594" y="91.9233398438" type="qcurve" smooth="yes"/>
			<point x="570.0446777344" y="91.9233398438"/>
			<point x="689.7361450195" y="212.91015625"/>
			<point x="689.7361450195" y="287.8443603516" type="qcurve" smooth="yes"/>
			<point x="689.7361450195" y="373.2810668945"/>
			<point x="584.5169067383" y="435.1225585938"/>
			<point x="411.4802856445" y="476.9898071289" type="qcurve" smooth="yes"/>
			<point x="237.1497802734" y="516.0778808594"/>
			<point x="115.18359375" y="634.8737792969"/>
			<point x="115.18359375" y="740.0147705078" type="qcurve" smooth="yes"/>
			<point x="115.18359375" y="861.1323242188"/>
			<point x="276.5717163086" y="1023.9692382812"/>
			<point x="440.2801513672" y="1023.9692382812" type="qcurve" smooth="yes"/>
			<point x="525.4569702148" y="1023.9692382812"/>
			<point x="612.6909790039" y="979.0927734375"/>
			<point x="649.1611328125" y="943.0310058594" type="qcurve"/>
			<point x="674.7907714844" y="991.3796386719" type="line"/>
			<point x="768.9782104492" y="991.3796386719" type="line"/>
			<point x="768.9782104492" y="732.1484375" type="line"/>
			<point x="662.4200439453" y="732.1484375" type="line"/>
			<point x="648.2595214844" y="795.2911376953" type="line" smooth="yes"/>
			<point x="636.3970336914" y="877.9078369141"/>
			<point x="534.3677978516" y="916.6013793945"/>
			<point x="458.3662719727" y="916.6013793945" type="qcurve" smooth="yes"/>
			<point x="371.1796875" y="916.6013793945"/>
			<point x="270.3941650391" y="843.0982666016"/>
			<point x="270.3941650391" y="780.341003418" type="qcurve" smooth="yes"/>
			<point x="270.3941650391" y="711.276184082"/>
			<point x="346.6608276367" y="634.2145385742"/>
			<point x="543.3380737305" y="601.2916259766" type="qcurve" smooth="yes"/>
			<point x="640.5130004883" y="592.2955322266"/>
			<point x="845.5887451172" y="440.7045898438"/>
			<point x="845.5887451172" y="286.9490966797" type="qcurve" smooth="yes"/>
			<point x="845.5887451172" y="148.8166503906"/>
			<point x="649.728515625" y="-20"/>
			<point x="505.6010131836" y="-20" type="qcurve" smooth="yes"/>
			<point x="380.3181762695" y="-20"/>
			<point x="279.6181030273" y="47.0617675781"/>
			<point x="236.2081298828" y="91.9382324219" type="qcurve"/>
			<point x="187.3192138672" y="10.5895996094" type="line"/>
		</contour>
	</outline>
	<anchor name="bottom" x="468" y="0"/>
	<anchor name="top" x="416" y="1000"/>
</glyph>
<glyph name="t" format="2">
	<unicode hex="0074"/>
	<advance width="631"/>
	<outline>
		<contour>
			<point x="57.2854003906" y="893.2177734375" type="line"/>
			<point x="57.2854003906" y="961.2534179688" type="line"/>
			<point x="152.2854003906" y="973.2534179688"/>
			<point x="288.5209960938" y="1092.7297363281"/>
			<point x="313.4475097656" y="1208" type="qcurve"/>
			<point x="334.4475097656" y="1208" type="line"/>
			<point x="354.4475097656" y="1183" type="line"/>
			<point x="349.4475097656" y="995.4376831055" type="line"/>
			<point x="600.8968505859" y="995.4376831055" type="line"/>
			<point x="600.8968505859" y="889.2917480469" type="line"/>
			<point x="381.8314208984" y="889.2917480469" type="line"/>
			<point x="381.8314208984" y="528.6232910156" type="line"/>
			<point x="380.8314208984" y="197.8500366211" type="line" smooth="yes"/>
			<point x="380.8314208984" y="145.8500366211"/>
			<point x="420.3607177734" y="104.8500366211"/>
			<point x="472.9486083984" y="104.8500366211" type="qcurve" smooth="yes"/>
			<point x="608.0335693359" y="104.8500366211" type="line"/>
			<point x="608.0335693359" y="23" type="line"/>
			<point x="282.9299316406" y="-8" type="line"/>
			<point x="237.5871582031" y="-5"/>
			<point x="216.2355957031" y="50"/>
			<point x="217.2355957031" y="109" type="qcurve" smooth="yes"/>
			<point x="219.2355957031" y="528.6232910156" type="line"/>
			<point x="219.2355957031" y="880.2177734375" type="line"/>
		</contour>
	</outline>
	<anchor name="bottom" x="322" y="0"/>
	<anchor name="center" x="312" y="622"/>
	<anchor name="top" x="322" y="1179"/>
	<anchor name="topright" x="540" y="1000"/>
</glyph>
<glyph name="u" format="2">
	<unicode hex="0075"/>
	<advance width="1249"/>
	<outline>
		<contour>
			<point x="41.2146606445" y="889.8361816406" type="line"/>
			<point x="41.2146606445" y="987.8361816406" type="line"/>
			<point x="352.0930786133" y="1001.8361816406" type="line"/>
			<point x="367.0930786133" y="995.8361816406" type="line"/>
			<point x="373.0930786133" y="969.8361816406" type="line"/>
			<point x="371.0930786133" y="472.7338867188" type="line"/>
			<point x="373.0930786133" y="326.4418334961" type="line" smooth="yes"/>
			<point x="374.0930786133" y="210.4418334961"/>
			<point x="477.8850708008" y="116.4418334961"/>
			<point x="544.4797973633" y="116.4418334961" type="qcurve" smooth="yes"/>
			<point x="627.7424926758" y="116.4418334961"/>
			<point x="815.0247192383" y="218.4418334961"/>
			<point x="866.6516723633" y="308.4418334961" type="qcurve"/>
			<point x="865.6516723633" y="472.7338867188" type="line"/>
			<point x="862.6516723633" y="869.8361816406" type="line"/>
			<point x="703.6528930664" y="889.8361816406" type="line"/>
			<point x="703.6528930664" y="987.8361816406" type="line"/>
			<point x="1010.1239624023" y="1001.8361816406" type="line"/>
			<point x="1021.1239624023" y="995.8361816406" type="line"/>
			<point x="1027.1239624023" y="968.8361816406" type="line"/>
			<point x="1026.1239624023" y="472.7338867188" type="line"/>
			<point x="1027.1239624023" y="117" type="line"/>
			<point x="1196.1227416992" y="101" type="line"/>
			<point x="1196.1227416992" y="14" type="line"/>
			<point x="899.6516723633" y="-1" type="line"/>
			<point x="880.6516723633" y="21" type="line"/>
			<point x="865.6516723633" y="172" type="line"/>
			<point x="814.5552368164" y="93"/>
			<point x="598.2880249023" y="-18"/>
			<point x="484.0090942383" y="-18" type="qcurve" smooth="yes"/>
			<point x="354.149597168" y="-18"/>
			<point x="210.2134399414" y="130.3956298828"/>
			<point x="210.2134399414" y="245" type="qcurve" smooth="yes"/>
			<point x="210.2134399414" y="322.9068603516"/>
			<point x="212.2001342773" y="472.7604980469"/>
			<point x="212.2134399414" y="472.7338867188" type="qcurve" smooth="yes"/>
			<point x="210.2134399414" y="869.8361816406" type="line"/>
		</contour>
	</outline>
	<anchor name="bottom" x="622" y="0"/>
	<anchor name="ogonek" x="1030" y="20"/>
	<anchor name="top" x="622" y="1000"/>
	<anchor name="topright" x="1005" y="1000"/>
	<anchor name="cy_descender" x="1178" y="80"/>
</glyph>
<glyph name="v" format="2">
	<unicode hex="0076"/>
	<advance width="1005"/>
	<outline>
		<contour>
			<point x="-42.8056640625" y="902.9692382812" type="line"/>
			<point x="-42.8056640625" y="1001.9692382812" type="line"/>
			<point x="414.5206298828" y="1001.9692382812" type="line"/>
			<point x="414.5206298828" y="902.9692382812" type="line"/>
			<point x="278.5218505859" y="879.9692382812" type="line"/>
			<point x="404.9760131836" y="543.9285888672" type="line"/>
			<point x="486" y="301" type="line"/>
			<point x="523" y="187" type="line"/>
			<point x="533" y="187" type="line"/>
			<point x="570" y="301" type="line"/>
			<point x="651.5779418945" y="543.7225952148" type="line"/>
			<point x="781.0374755859" y="879.9692382812" type="line"/>
			<point x="634.0386962891" y="902.9692382812" type="line"/>
			<point x="634.0386962891" y="1001.9692382812" type="line"/>
			<point x="1054.1966552734" y="1001.9692382812" type="line"/>
			<point x="1054.1966552734" y="902.9692382812" type="line"/>
			<point x="912.1978759766" y="879.9692382812" type="line"/>
			<point x="755.020324707" y="505.7954101562" type="line"/>
			<point x="561.934753418" y="-7" type="line"/>
			<point x="452.8977050781" y="-7" type="line"/>
			<point x="264.7854003906" y="496.2495117188" type="line"/>
			<point x="108.1931152344" y="878.9692382812" type="line"/>
		</contour>
	</outline>
	<anchor name="bottom" x="513" y="0"/>
	<anchor name="top" x="513" y="1000"/>
</glyph>
<glyph name="w" format="2">
	<unicode hex="0077"/>
	<advance width="1575"/>
	<outline>
		<contour>
			<point x="439.3712158203" y="-7" type="line"/>
			<point x="259.1225585938" y="486.2640380859" type="line"/>
			<point x="95.8232421875" y="880.9692382812" type="line"/>
			<point x="-53.1755371094" y="901.9692382812" type="line"/>
			<point x="-53.1755371094" y="1001.9692382812" type="line"/>
			<point x="426.4365234375" y="1001.9692382812" type="line"/>
			<point x="426.4365234375" y="901.9692382812" type="line"/>
			<point x="281.4377441406" y="881.9692382812" type="line"/>
			<point x="395.7952880859" y="518.9017333984" type="line"/>
			<point x="483" y="294" type="line"/>
			<point x="521" y="180" type="line"/>
			<point x="531" y="180" type="line"/>
			<point x="568" y="294" type="line"/>
			<point x="615.7985839844" y="464.661315918" type="line"/>
			<point x="725" y="747" type="line"/>
			<point x="682.6651000977" y="880.9692382812" type="line"/>
			<point x="534.6663208008" y="901.9692382812" type="line"/>
			<point x="534.6663208008" y="1001.9692382812" type="line"/>
			<point x="995.2662963867" y="1001.9692382812" type="line"/>
			<point x="995.2662963867" y="901.9692382812" type="line"/>
			<point x="853.2675170898" y="880.9692382812" type="line"/>
			<point x="994.8276977539" y="453.6334228516" type="line"/>
			<point x="1045" y="294" type="line"/>
			<point x="1082" y="180" type="line"/>
			<point x="1092" y="180" type="line"/>
			<point x="1128" y="294" type="line"/>
			<point x="1200.8392333984" y="525.7247924805" type="line"/>
			<point x="1320.7677612305" y="880.9692382812" type="line"/>
			<point x="1178.7689819336" y="901.9692382812" type="line"/>
			<point x="1178.7689819336" y="1001.9692382812" type="line"/>
			<point x="1606.4851074219" y="1001.9692382812" type="line"/>
			<point x="1606.4851074219" y="901.9692382812" type="line"/>
			<point x="1464.486328125" y="880.9692382812" type="line"/>
			<point x="1308" y="496" type="line"/>
			<point x="1125.1240234375" y="-7" type="line"/>
			<point x="1016.2084350586" y="-7" type="line"/>
			<point x="830" y="480" type="line"/>
			<point x="790" y="595" type="line"/>
			<point x="780" y="595" type="line"/>
			<point x="741" y="480" type="line"/>
			<point x="559.6696166992" y="-7" type="line"/>
		</contour>
	</outline>
	<anchor name="bottom" x="787" y="0"/>
	<anchor name="top" x="787" y="1000"/>
</glyph>
<glyph name="x" format="2">
	<unicode hex="0078"/>
	<advance width="1088"/>
	<outline>
		<contour>
			<point x="-2.1879882812" y="0" type="line"/>
			<point x="-2.1879882812" y="80" type="line"/>
			<point x="162.8107910156" y="107" type="line"/>
			<point x="444" y="480" type="line"/>
			<point x="127.5723266602" y="880.9692382812" type="line"/>
			<point x="-27.4264526367" y="901.9692382812" type="line"/>
			<point x="-27.4264526367" y="1001.9692382812" type="line"/>
			<point x="452.9683227539" y="1001.9692382812" type="line"/>
			<point x="452.9683227539" y="901.9692382812" type="line"/>
			<point x="298.969543457" y="880.9692382812" type="line"/>
			<point x="454" y="701" type="line"/>
			<point x="527" y="602" type="line"/>
			<point x="537" y="602" type="line"/>
			<point x="603" y="701" type="line"/>
			<point x="721.0753173828" y="880.9692382812" type="line"/>
			<point x="557.0765380859" y="901.9692382812" type="line"/>
			<point x="557.0765380859" y="1001.9692382812" type="line"/>
			<point x="1005.6774291992" y="1001.9692382812" type="line"/>
			<point x="1005.6774291992" y="901.9692382812" type="line"/>
			<point x="859.6786499023" y="880.9692382812" type="line"/>
			<point x="594" y="524" type="line"/>
			<point x="918.4808959961" y="107" type="line"/>
			<point x="1089.479675293" y="80" type="line"/>
			<point x="1089.479675293" y="0" type="line"/>
			<point x="595.3737182617" y="0" type="line"/>
			<point x="595.3737182617" y="80" type="line"/>
			<point x="745.3724975586" y="107" type="line"/>
			<point x="584" y="305" type="line"/>
			<point x="511" y="402" type="line"/>
			<point x="501" y="402" type="line"/>
			<point x="439" y="305" type="line"/>
			<point x="301.8364868164" y="107" type="line"/>
			<point x="446.8352661133" y="80" type="line"/>
			<point x="446.8352661133" y="0" type="line"/>
		</contour>
	</outline>
	<anchor name="bottom" x="522" y="0"/>
	<anchor name="top" x="522" y="1000"/>
	<anchor name="cy_descender" x="1043" y="80"/>
</glyph>
<glyph name="y" format="2">
	<unicode hex="0079"/>
	<advance width="892"/>
	<outline>
		<contour>
			<point x="-70.669921875" y="902.9692382812" type="line"/>
			<point x="-70.669921875" y="1001.9692382812" type="line"/>
			<point x="390.446105957" y="1001.9692382812" type="line"/>
			<point x="390.446105957" y="902.9692382812" type="line"/>
			<point x="251.4473266602" y="879.9692382812" type="line"/>
			<point x="401.4479980469" y="498.1262207031" type="line"/>
			<point x="495.0965576172" y="247.6549682617" type="line"/>
			<point x="520.3071289062" y="161.7159423828" type="line"/>
			<point x="524.3071289062" y="161.7159423828" type="line"/>
			<point x="548.0679931641" y="247.3315429688" type="line"/>
			<point x="643.7383422852" y="501.9418334961" type="line"/>
			<point x="786.448425293" y="879.9692382812" type="line"/>
			<point x="629.4496459961" y="902.9692382812" type="line"/>
			<point x="629.4496459961" y="1001.9692382812" type="line"/>
			<point x="1060.0662231445" y="1001.9692382812" type="line"/>
			<point x="1060.0662231445" y="902.9692382812" type="line"/>
			<point x="918.0674438477" y="879.9692382812" type="line"/>
			<point x="749.6842651367" y="458.9876708984" type="line"/>
			<point x="453.6196899414" y="-324.0700683594" type="line" smooth="yes"/>
			<point x="419.2326660156" y="-394.7139282227"/>
			<point x="282.8140258789" y="-488"/>
			<point x="207.0376586914" y="-488" type="qcurve"/>
			<point x="44.9158935547" y="-454.4821777344" type="line"/>
			<point x="44.9158935547" y="-361.4841918945" type="line"/>
			<point x="146.6764526367" y="-361.4841918945" type="line" smooth="yes"/>
			<point x="222.2918701172" y="-361.4841918945"/>
			<point x="347.8824462891" y="-296.7041015625"/>
			<point x="378.1859130859" y="-226.9162597656" type="qcurve" smooth="yes"/>
			<point x="443.4897460938" y="-16.57421875" type="line"/>
			<point x="454.8966064453" y="-16.57421875" type="line"/>
			<point x="261.9165649414" y="451.9754638672" type="line"/>
			<point x="90.3288574219" y="878.9692382812" type="line"/>
		</contour>
	</outline>
	<anchor name="bottom" x="782" y="0"/>
	<anchor name="top" x="524" y="1000"/>
</glyph>
<glyph name="z" format="2">
	<unicode hex="007A"/>
	<advance width="880"/>
	<outline>
		<contour>
			<point x="32.3826293945" y="0" type="line"/>
			<point x="32.3826293945" y="96.4794921875" type="line"/>
			<point x="632.4468994141" y="886.4534301758" type="line"/>
			<point x="209.7451782227" y="886.4534301758" type="line"/>
			<point x="175.1150512695" y="773.7380371094" type="line"/>
			<point x="68.1123657227" y="773.7380371094" type="line"/>
			<point x="68.1123657227" y="1001.9692382812" type="line"/>
			<point x="828.4528198242" y="1001.9692382812" type="line"/>
			<point x="828.4528198242" y="910.6376953125" type="line"/>
			<point x="216.7842407227" y="114.5158081055" type="line"/>
			<point x="714.4641113281" y="114.5158081055" type="line"/>
			<point x="749.0942382812" y="227.2312011719" type="line"/>
			<point x="855.0969238281" y="227.2312011719" type="line"/>
			<point x="855.0969238281" y="0" type="line"/>
		</contour>
	</outline>
	<anchor name="bottom" x="443" y="0"/>
	<anchor name="top" x="443" y="1000"/>
	<anchor name="_liga" x="0" y="0"/>
</glyph>
<glyph name="jdotless" format="2">
	<advance width="599"/>
	<outline>
		<contour>
			<point x="21.8300170898" y="-478" type="qcurve"/>
			<point x="22.891784668" y="-359" type="line"/>
			<point x="115.9591674805" y="-360"/>
			<point x="222.2130737305" y="-323.2841796875"/>
			<point x="222.2130737305" y="-280.7158203125" type="qcurve" smooth="yes"/>
			<point x="223.1513061523" y="528.9692382812" type="line"/>
			<point x="217.966003418" y="859.8824462891" type="line"/>
			<point x="45.1525268555" y="881.3515625" type="line"/>
			<point x="45.1525268555" y="978.3515625" type="line"/>
			<point x="336.2029418945" y="1004.9692382812" type="line"/>
			<point x="369.2529907227" y="1002.9692382812" type="line"/>
			<point x="389.8088989258" y="951.4500732422" type="line"/>
			<point x="382.6235961914" y="528.9692382812" type="line"/>
			<point x="387.6853637695" y="-276.7353515625" type="line" smooth="yes"/>
			<point x="389.2162475586" y="-382.7353515625"/>
			<point x="196.9743041992" y="-490"/>
		</contour>
	</outline>
	<anchor name="bottom" x="278" y="-436"/>
	<anchor name="top" x="278" y="1000"/>
	<anchor name="_liga" x="0" y="0"/>
</glyph>
